<svg width="432" height="432" viewBox="0 0 432 432" xmlns="http://www.w3.org/2000/svg">
  <!-- Foreground icon for adaptive icon (within safe zone) -->
  <g transform="translate(216,216)">
    <!-- Checklist icon - main element -->
    <!-- Clipboard background -->
    <rect x="-90" y="-120" width="180" height="220" rx="20" ry="20" fill="#007AFF" opacity="0.95"/>
    
    <!-- Clipboard top clip -->
    <rect x="-30" y="-135" width="60" height="25" rx="8" ry="8" fill="#5856D6"/>
    
    <!-- Checklist items -->
    <!-- Item 1 - completed -->
    <g transform="translate(-70, -80)">
      <circle cx="10" cy="10" r="12" fill="#34C759"/>
      <path d="M3 10 L8 15 L17 6" stroke="#FFFFFF" stroke-width="3" fill="none" stroke-linecap="round" stroke-linejoin="round"/>
      <rect x="30" y="6" width="90" height="8" rx="4" fill="#FFFFFF"/>
    </g>
    
    <!-- Item 2 - completed -->
    <g transform="translate(-70, -40)">
      <circle cx="10" cy="10" r="12" fill="#34C759"/>
      <path d="M3 10 L8 15 L17 6" stroke="#FFFFFF" stroke-width="3" fill="none" stroke-linecap="round" stroke-linejoin="round"/>
      <rect x="30" y="6" width="75" height="8" rx="4" fill="#FFFFFF"/>
    </g>
    
    <!-- Item 3 - pending -->
    <g transform="translate(-70, 0)">
      <circle cx="10" cy="10" r="12" fill="#FF3B30"/>
      <rect x="30" y="6" width="85" height="8" rx="4" fill="#FFFFFF" opacity="0.7"/>
    </g>
    
    <!-- Item 4 - pending -->
    <g transform="translate(-70, 40)">
      <circle cx="10" cy="10" r="12" fill="#FF9500"/>
      <rect x="30" y="6" width="70" height="8" rx="4" fill="#FFFFFF" opacity="0.7"/>
    </g>
    
    <!-- Progress indicator at bottom -->
    <rect x="-60" y="75" width="120" height="6" rx="3" fill="#FFFFFF" opacity="0.3"/>
    <rect x="-60" y="75" width="60" height="6" rx="3" fill="#34C759"/>
  </g>
</svg>