<svg width="512" height="512" viewBox="0 0 512 512" xmlns="http://www.w3.org/2000/svg">
  <defs>
    <linearGradient id="gradient" x1="0%" y1="0%" x2="100%" y2="100%">
      <stop offset="0%" style="stop-color:#007AFF;stop-opacity:1" />
      <stop offset="100%" style="stop-color:#5856D6;stop-opacity:1" />
    </linearGradient>
    <filter id="shadow" x="-20%" y="-20%" width="140%" height="140%">
      <feDropShadow dx="2" dy="8" stdDeviation="8" flood-color="#000" flood-opacity="0.3"/>
    </filter>
  </defs>
  
  <!-- App icon background with rounded corners -->
  <rect x="32" y="32" width="448" height="448" rx="112" ry="112" fill="url(#gradient)" filter="url(#shadow)"/>
  
  <!-- Checklist icon - main element -->
  <g transform="translate(256,256)">
    <!-- Clipboard background -->
    <rect x="-90" y="-120" width="180" height="220" rx="20" ry="20" fill="#FFFFFF" opacity="0.95"/>
    
    <!-- Clipboard top clip -->
    <rect x="-30" y="-135" width="60" height="25" rx="8" ry="8" fill="#E5E5EA"/>
    
    <!-- Checklist items -->
    <!-- Item 1 - completed -->
    <g transform="translate(-70, -80)">
      <circle cx="10" cy="10" r="12" fill="#34C759"/>
      <path d="M3 10 L8 15 L17 6" stroke="#FFFFFF" stroke-width="3" fill="none" stroke-linecap="round" stroke-linejoin="round"/>
      <rect x="30" y="6" width="90" height="8" rx="4" fill="#8E8E93"/>
    </g>
    
    <!-- Item 2 - completed -->
    <g transform="translate(-70, -40)">
      <circle cx="10" cy="10" r="12" fill="#34C759"/>
      <path d="M3 10 L8 15 L17 6" stroke="#FFFFFF" stroke-width="3" fill="none" stroke-linecap="round" stroke-linejoin="round"/>
      <rect x="30" y="6" width="75" height="8" rx="4" fill="#8E8E93"/>
    </g>
    
    <!-- Item 3 - pending -->
    <g transform="translate(-70, 0)">
      <circle cx="10" cy="10" r="12" fill="#FF3B30"/>
      <rect x="30" y="6" width="85" height="8" rx="4" fill="#FF3B30" opacity="0.8"/>
    </g>
    
    <!-- Item 4 - pending -->
    <g transform="translate(-70, 40)">
      <circle cx="10" cy="10" r="12" fill="#FF9500"/>
      <rect x="30" y="6" width="70" height="8" rx="4" fill="#FF9500" opacity="0.8"/>
    </g>
    
    <!-- Progress indicator at bottom -->
    <rect x="-60" y="75" width="120" height="6" rx="3" fill="#E5E5EA"/>
    <rect x="-60" y="75" width="60" height="6" rx="3" fill="#34C759"/>
  </g>
</svg>